<?xml version="1.0" encoding="UTF-8"?> <svg xmlns="http://www.w3.org/2000/svg" id="Layer_1" data-name="Layer 1" viewBox="0 0 1000 326.96"><defs><style>.cls-1{fill:#262f75;}.cls-2{fill:#fff;}.cls-3{fill:#ffc600;}.cls-4{fill:none;}</style></defs><rect class="cls-1" x="326.96" width="673.04" height="326.96"></rect><rect class="cls-2" x="500.98" y="64.45" width="14.54" height="68.27"></rect><path class="cls-2" d="M602.14,118.39l-75.61,0v15h76.18a20.56,20.56,0,0,0,14.54-35.24,20,20,0,0,0-14.54-6.15l-55.42-.42a6,6,0,0,1-5.93-5.93h0a6,6,0,0,1,6-5.94l76.09-.05V65.06H547.23a21.08,21.08,0,0,0-20.7,20.71,20,20,0,0,0,6.17,14.53A19.54,19.54,0,0,0,547.23,106h55.36a5.94,5.94,0,0,1,5.94,6h0A6.39,6.39,0,0,1,602.14,118.39Z" transform="translate(0 -0.61)"></path><path class="cls-2" d="M664.36,65.06h63V79.6h-63A19.53,19.53,0,0,0,645,99a19.51,19.51,0,0,0,19.37,19.37h63v15H664.4c-9.25,0-17.2-3.55-23.82-10.15A32.23,32.23,0,0,1,630.9,99.4a32.24,32.24,0,0,1,9.68-23.78Q650.51,65.08,664.36,65.06Z" transform="translate(0 -0.61)"></path><path class="cls-2" d="M468.84,92.48l-60.77-.11V80.05l61.38-.13a6,6,0,0,1,6,6h0A6.61,6.61,0,0,1,468.84,92.48Zm21.58,40.85-19.37-26.88c5.26-.43,9.67-2.19,13.2-6.15a20.71,20.71,0,0,0-14.54-35.24H393.53v68.27h14.54V106.45H453l19.37,26.88Z" transform="translate(0 -0.61)"></path><polyline class="cls-2" points="800 132.72 760.11 64.45 777.18 64.45 808.37 118.61 839.57 64.45 856.38 64.45 816.73 132.72"></polyline><rect class="cls-2" x="736.16" y="92.18" width="28.62" height="13.22"></rect><path class="cls-3" d="M391.54,163.22h20.4c12.06,0,17.58,7.89,17.58,19.56,0,11.21-4.9,20.68-17.24,20.68H391.54ZM412,198.27c9.81,0,11.56-8.23,11.56-15.38s-2.31-14.48-12.68-14.48H397.51v29.86Z" transform="translate(0 -0.61)"></path><path class="cls-3" d="M444.27,163.22h32.35v5.19H450.25v11.66h25.58v5.18H450.25v13h26.93v5.19H444.27Z" transform="translate(0 -0.61)"></path><path class="cls-3" d="M522.37,163.22h6.42l-17.63,40.24h-6.37l-17.92-40.24h6.76l14.48,34Z" transform="translate(0 -0.61)"></path><path class="cls-3" d="M540.4,163.22h32.34v5.19H546.37v11.66H572v5.18H546.37v13h26.94v5.19H540.4Z" transform="translate(0 -0.61)"></path><path class="cls-3" d="M588.18,163.22h6v35.05h24.46v5.19H588.18Z" transform="translate(0 -0.61)"></path><path class="cls-3" d="M651.51,162.21c16.17,0,22.37,10.82,22.37,21.13s-6.2,21.13-22.37,21.13-22.37-10.82-22.37-21.13S635.34,162.21,651.51,162.21Zm0,5.18c-9.19,0-16.4,5.3-16.4,16s7.21,15.95,16.4,15.95,16.4-5.3,16.4-15.95S660.69,167.39,651.51,167.39Z" transform="translate(0 -0.61)"></path><path class="cls-3" d="M688.47,163.22H709.2c8.85,0,13.47,4.06,13.47,11.55s-4.62,12.57-13.07,12.57H694.44v16.12h-6Zm20.34,18.94c5.92,0,7.89-3.22,7.89-7.27,0-3.84-2.26-6.48-6.82-6.48H694.44v13.75Z" transform="translate(0 -0.61)"></path><path class="cls-3" d="M777.27,163.22h8.28v40.24h-6V170.1h-.11L763.8,203.46h-5.3l-15.6-32.69h-.12v32.69h-6V163.22h8.4l15.94,33.36Z" transform="translate(0 -0.61)"></path><path class="cls-3" d="M802.11,163.22h32.35v5.19H808.08v11.66h25.59v5.18H808.08v13H835v5.19H802.11Z" transform="translate(0 -0.61)"></path><path class="cls-3" d="M856,171.45h-.12v32h-6V163.22h6.93l25.87,32h.11v-32h6v40.24h-6.93Z" transform="translate(0 -0.61)"></path><path class="cls-3" d="M916.49,168.41H901.28v-5.19h36.4v5.19H922.46v35.05h-6Z" transform="translate(0 -0.61)"></path><path class="cls-3" d="M391.76,226.07H412.5c8.85,0,13.47,4.06,13.47,11.55s-4.62,12.57-13.07,12.57H397.74v16.12h-6ZM412.11,245c5.91,0,7.89-3.22,7.89-7.27,0-3.83-2.26-6.48-6.82-6.48H397.74V245Z" transform="translate(0 -0.61)"></path><path class="cls-3" d="M464.73,254.59H445l-5.13,11.72h-6.42l18.2-40.24h6.82l18.2,40.24h-6.82Zm-9.92-23-7.55,17.81h15.27Z" transform="translate(0 -0.61)"></path><path class="cls-3" d="M488.9,226.07h24.91c8.05,0,11,5.58,11,10.71,0,4.9-2.36,8.51-6.76,9.92v.11c3.55.51,5.64,3.83,5.86,8.57.34,7.49.57,9.35,1.92,10.93H519.5c-1-1.13-1-2.82-1.24-7.67-.4-7.21-2.82-9.41-7.78-9.41H494.87v17.08h-6Zm22.65,18c5.86,0,7.27-3.55,7.27-6.37,0-3.83-2.31-6.42-7.1-6.42H494.87v12.79Z" transform="translate(0 -0.61)"></path><path class="cls-3" d="M550.26,231.26H535v-5.19h36.41v5.19H556.23v35.05h-6Z" transform="translate(0 -0.61)"></path><path class="cls-3" d="M590,234.3h-.12v32h-6V226.07h6.93l25.87,32h.11v-32h6v40.24H615.9Z" transform="translate(0 -0.61)"></path><path class="cls-3" d="M639.62,226.07H672v5.19H645.59v11.66h25.58v5.19H645.59v13h26.94v5.19H639.62Z" transform="translate(0 -0.61)"></path><path class="cls-3" d="M687.4,226.07h24.9c8.06,0,11,5.58,11,10.71,0,4.9-2.37,8.51-6.76,9.92v.11c3.55.51,5.63,3.83,5.86,8.57.34,7.49.56,9.35,1.92,10.93H718c-1-1.13-1-2.82-1.24-7.67-.39-7.21-2.81-9.41-7.77-9.41H693.37v17.08h-6Zm22.65,18c5.86,0,7.27-3.55,7.27-6.37,0-3.83-2.31-6.42-7.1-6.42H693.37v12.79Z" transform="translate(0 -0.61)"></path><rect class="cls-3" width="326.96" height="326.96"></rect><path class="cls-4" d="M163.48,166.07A14.52,14.52,0,1,0,149,151.55,14.53,14.53,0,0,0,163.48,166.07Z" transform="translate(0 -0.61)"></path><path class="cls-4" d="M163.48,175.62a38.59,38.59,0,0,0-31.67,16.54,42.24,42.24,0,0,0,63.34,0A38.59,38.59,0,0,0,163.48,175.62Z" transform="translate(0 -0.61)"></path><path class="cls-4" d="M200.86,183.91a42.36,42.36,0,1,0-74.76,0A48.14,48.14,0,0,1,147,169a24.06,24.06,0,1,1,33,0A48.14,48.14,0,0,1,200.86,183.91Z" transform="translate(0 -0.61)"></path><path class="cls-4" d="M277.31,172l0,0V156.23l-25.66-3.66a8.68,8.68,0,0,1-7.21-6.67c-.5-2.21-1.09-4.42-1.76-6.57a8.68,8.68,0,0,1,2.92-9.37L266,114l-7.85-13.69L234.1,110a8.65,8.65,0,0,1-9.57-2.16c-1.54-1.66-3.16-3.28-4.81-4.81a8.67,8.67,0,0,1-2.16-9.57l9.69-24L213.6,61.54l-16,20.39a8.68,8.68,0,0,1-9.37,2.92c-2.14-.67-4.35-1.26-6.57-1.76A8.68,8.68,0,0,1,175,75.88l-3.6-25.61-15.79-.05L152,75.88a8.65,8.65,0,0,1-6.66,7.21c-2.21.49-4.42,1.09-6.57,1.76a8.67,8.67,0,0,1-9.37-2.92L113.42,61.56,99.73,69.41l9.67,24.06a8.67,8.67,0,0,1-2.16,9.57c-1.66,1.54-3.28,3.15-4.81,4.81A8.67,8.67,0,0,1,92.86,110l-24-9.69L60.93,114l20.39,16a8.68,8.68,0,0,1,2.92,9.37c-.67,2.15-1.27,4.36-1.76,6.57a8.68,8.68,0,0,1-7.21,6.67l-25.62,3.6,0,15.79,25.66,3.66a8.65,8.65,0,0,1,7.21,6.66c.49,2.21,1.08,4.42,1.76,6.58a8.68,8.68,0,0,1-2.92,9.36L60.94,214.15l7.86,13.69,24.06-9.67a8.68,8.68,0,0,1,9.57,2.16c1.53,1.66,3.15,3.28,4.81,4.81a8.69,8.69,0,0,1,2.16,9.57l-9.69,24,13.65,7.93,16-20.39a8.69,8.69,0,0,1,6.81-3.3,8.87,8.87,0,0,1,2.56.38c2.15.68,4.36,1.27,6.57,1.76A8.65,8.65,0,0,1,152,252.3l3.61,25.62,15.78,0L175,252.3a8.68,8.68,0,0,1,6.67-7.21c2.21-.49,4.42-1.09,6.57-1.76a8.71,8.71,0,0,1,9.37,2.92l15.93,20.38,13.69-7.86-9.67-24.06a8.67,8.67,0,0,1,2.16-9.57c1.65-1.52,3.27-3.14,4.81-4.81a8.68,8.68,0,0,1,9.57-2.16l24,9.69L266,214.21l-20.39-16a8.67,8.67,0,0,1-2.92-9.37c.68-2.15,1.27-4.36,1.76-6.57a8.65,8.65,0,0,1,7.21-6.66Zm-113.6,58.83a66.75,66.75,0,1,1,66.75-66.75A66.82,66.82,0,0,1,163.71,230.84Z" transform="translate(0 -0.61)"></path><path class="cls-4" d="M163.71,106.29a57.81,57.81,0,1,0,57.81,57.8A57.87,57.87,0,0,0,163.71,106.29Zm-.23,109a51.23,51.23,0,1,1,51.22-51.23A51.28,51.28,0,0,1,163.48,215.32Z" transform="translate(0 -0.61)"></path><path class="cls-1" d="M278.64,146.73l-25-3.52c-.47-2.05-1-4.1-1.63-6.12l19.87-15.54a9.63,9.63,0,0,0,2.4-12.35l-7.87-13.63a9.63,9.63,0,0,0-11.9-4.09l-23.41,9.44c-1.43-1.53-2.92-3-4.46-4.46l9.45-23.41a9.64,9.64,0,0,0-4.1-11.9l-13.63-7.87A9.63,9.63,0,0,0,206,55.68L190.48,75.55c-2-.61-4-1.15-6.12-1.63l-3.51-25a9.65,9.65,0,0,0-9.5-8.25H155.61a9.65,9.65,0,0,0-9.5,8.26l-3.52,25c-2.05.47-4.1,1-6.11,1.63L120.94,55.68a9.63,9.63,0,0,0-12.36-2.4L95,61.15a9.63,9.63,0,0,0-4.1,11.9l9.45,23.41c-1.53,1.43-3,2.93-4.47,4.46L72.43,91.48a9.63,9.63,0,0,0-11.9,4.09L52.67,109.2a9.62,9.62,0,0,0,2.4,12.35l19.87,15.54c-.61,2-1.16,4.06-1.63,6.12l-25,3.52a9.63,9.63,0,0,0-8.25,9.5V172a9.65,9.65,0,0,0,8.25,9.5l25,3.52c.47,2.05,1,4.11,1.63,6.11L55.07,206.63A9.63,9.63,0,0,0,52.67,219l7.86,13.62a9.64,9.64,0,0,0,11.9,4.1l23.41-9.45c1.43,1.53,2.93,3,4.47,4.47l-9.45,23.41A9.64,9.64,0,0,0,95,267l13.62,7.86a9.63,9.63,0,0,0,12.36-2.4l15.54-19.87c2,.61,4.06,1.16,6.11,1.63l3.52,25a9.64,9.64,0,0,0,9.5,8.25h15.74a9.64,9.64,0,0,0,9.5-8.25l3.51-25c2.06-.47,4.12-1,6.12-1.63L206,272.5a9.62,9.62,0,0,0,12.35,2.4L232,267a9.65,9.65,0,0,0,4.1-11.9l-9.45-23.41c1.53-1.44,3-2.94,4.47-4.47l23.41,9.45a9.64,9.64,0,0,0,11.9-4.1L274.29,219a9.62,9.62,0,0,0-2.4-12.35L252,191.09c.61-2,1.16-4.07,1.63-6.11l25-3.52a9.65,9.65,0,0,0,8.25-9.5V156.23A9.63,9.63,0,0,0,278.64,146.73Zm-34.16,35.55c-.49,2.21-1.08,4.42-1.76,6.57a8.67,8.67,0,0,0,2.92,9.37l20.39,16-7.93,13.65-24-9.69a8.68,8.68,0,0,0-9.57,2.16c-1.54,1.67-3.16,3.29-4.81,4.81a8.67,8.67,0,0,0-2.16,9.57l9.67,24.06-13.69,7.86-15.93-20.38a8.71,8.71,0,0,0-9.37-2.92c-2.15.67-4.36,1.27-6.57,1.76A8.68,8.68,0,0,0,175,252.3L171.34,278l-15.78,0L152,252.3a8.65,8.65,0,0,0-6.66-7.21c-2.21-.49-4.42-1.08-6.57-1.76a8.87,8.87,0,0,0-2.56-.38,8.69,8.69,0,0,0-6.81,3.3l-16,20.39-13.65-7.93,9.69-24a8.69,8.69,0,0,0-2.16-9.57c-1.66-1.53-3.28-3.15-4.81-4.81a8.68,8.68,0,0,0-9.57-2.16L68.8,227.84l-7.86-13.69,20.38-15.93a8.68,8.68,0,0,0,2.92-9.36c-.68-2.16-1.27-4.37-1.76-6.58a8.65,8.65,0,0,0-7.21-6.66L49.61,172l0-15.79,25.62-3.6a8.68,8.68,0,0,0,7.21-6.67c.49-2.21,1.09-4.42,1.76-6.57A8.68,8.68,0,0,0,81.32,130L60.93,114l7.93-13.65,24,9.69a8.67,8.67,0,0,0,9.57-2.16c1.53-1.66,3.15-3.27,4.81-4.81a8.67,8.67,0,0,0,2.16-9.57L99.73,69.41l13.69-7.85,15.93,20.37a8.67,8.67,0,0,0,9.37,2.92c2.15-.67,4.36-1.27,6.57-1.76A8.65,8.65,0,0,0,152,75.88l3.66-25.66,15.79.05L175,75.88a8.68,8.68,0,0,0,6.67,7.21c2.22.5,4.43,1.09,6.57,1.76a8.68,8.68,0,0,0,9.37-2.92l16-20.39,13.65,7.93-9.69,24a8.67,8.67,0,0,0,2.16,9.57c1.65,1.53,3.27,3.15,4.81,4.81A8.65,8.65,0,0,0,234.1,110l24.06-9.66L266,114,245.64,130a8.68,8.68,0,0,0-2.92,9.37c.67,2.15,1.26,4.36,1.76,6.57a8.68,8.68,0,0,0,7.21,6.67l25.66,3.66V172l0,0-25.62,3.61A8.65,8.65,0,0,0,244.48,182.28Z" transform="translate(0 -0.61)"></path><path class="cls-1" d="M163.71,97.35a66.75,66.75,0,1,0,66.75,66.74A66.82,66.82,0,0,0,163.71,97.35Zm57.81,66.74a57.81,57.81,0,1,1-57.81-57.8A57.87,57.87,0,0,1,221.52,164.09Z" transform="translate(0 -0.61)"></path><path class="cls-1" d="M163.48,112.87a51.23,51.23,0,1,0,51.22,51.22A51.28,51.28,0,0,0,163.48,112.87Zm0,93.58a42.32,42.32,0,0,1-31.67-14.29,38.59,38.59,0,0,1,63.34,0A42.32,42.32,0,0,1,163.48,206.45Zm0-69.42A14.52,14.52,0,1,1,149,151.55,14.54,14.54,0,0,1,163.48,137Zm24.06,14.52A24.06,24.06,0,1,0,147,169a48.14,48.14,0,0,0-20.86,14.89,42.36,42.36,0,1,1,74.76,0A48.14,48.14,0,0,0,180,169,23.89,23.89,0,0,0,187.54,151.55Z" transform="translate(0 -0.61)"></path></svg> 